<svg width="31" height="31" viewBox="0 0 31 31" fill="none" xmlns="http://www.w3.org/2000/svg">
<path d="M20.075 3.5223L11.4591 0.528083C10.7354 0.271435 9.94275 0.271435 9.21902 0.510973L2.34353 2.80369C0.947755 3.28276 5.72205e-06 4.58311 5.72205e-06 6.05456V26.3297C5.72205e-06 28.7422 2.42969 30.3847 4.68705 29.5121L9.73597 27.5616C10.1151 27.4076 10.5459 27.4076 10.925 27.5445L19.5409 30.5387C20.2646 30.7954 21.0573 30.7954 21.781 30.5558L28.6565 28.2631C30.0523 27.8011 31 26.4837 31 25.0123V4.7371C31 2.32462 28.5703 0.682071 26.313 1.55467L21.264 3.50519C20.8849 3.64207 20.4714 3.65918 20.075 3.5223ZM20.6782 27.3221L10.3391 23.7119V3.74473L20.6782 7.3549V27.3221Z" fill="white"/>
</svg>
