<svg width="31" height="32" viewBox="0 0 31 32" fill="none" xmlns="http://www.w3.org/2000/svg">
<path d="M15.5 0.319946C6.944 0.319946 0 7.35653 0 16.0266C0 24.6967 6.944 31.7333 15.5 31.7333C24.056 31.7333 31 24.6967 31 16.0266C31 7.35653 24.056 0.319946 15.5 0.319946ZM15.5 5.03195C18.073 5.03195 20.15 7.13664 20.15 9.74395C20.15 12.3513 18.073 14.4559 15.5 14.4559C12.927 14.4559 10.85 12.3513 10.85 9.74395C10.85 7.13664 12.927 5.03195 15.5 5.03195ZM15.5 27.3354C11.625 27.3354 8.1995 25.325 6.2 22.2779C6.2465 19.1522 12.4 17.4402 15.5 17.4402C18.5845 17.4402 24.7535 19.1522 24.8 22.2779C22.8005 25.325 19.375 27.3354 15.5 27.3354Z" fill="white"/>
</svg>
