<svg width="24" height="22" viewBox="0 0 24 22" fill="none" xmlns="http://www.w3.org/2000/svg">
<path d="M-0.460478 31.372C-0.401811 31.372 -0.350478 31.3958 -0.306478 31.4435L0.117022 31.9C-0.205644 32.274 -0.597978 32.5655 -1.05998 32.7745C-1.51831 32.9835 -2.07381 33.088 -2.72648 33.088C-3.29114 33.088 -3.80448 32.9908 -4.26648 32.7965C-4.72848 32.5985 -5.12264 32.3235 -5.44898 31.9715C-5.77531 31.6158 -6.02831 31.1905 -6.20798 30.6955C-6.38764 30.2005 -6.47748 29.656 -6.47748 29.062C-6.47748 28.468 -6.38398 27.9235 -6.19698 27.4285C-6.00998 26.9335 -5.74781 26.5082 -5.41048 26.1525C-5.06948 25.7968 -4.66248 25.5218 -4.18948 25.3275C-3.71648 25.1295 -3.19398 25.0305 -2.62198 25.0305C-2.06098 25.0305 -1.56598 25.1203 -1.13698 25.3C-0.707978 25.4797 -0.330311 25.7235 -0.00397778 26.0315L-0.355978 26.521C-0.377978 26.5577 -0.407311 26.5888 -0.443978 26.6145C-0.476978 26.6365 -0.522811 26.6475 -0.581478 26.6475C-0.647478 26.6475 -0.728144 26.6127 -0.823478 26.543C-0.918811 26.4697 -1.04348 26.389 -1.19748 26.301C-1.35148 26.213 -1.54398 26.1342 -1.77498 26.0645C-2.00598 25.9912 -2.29014 25.9545 -2.62748 25.9545C-3.03448 25.9545 -3.40664 26.026 -3.74398 26.169C-4.08131 26.3083 -4.37281 26.5118 -4.61848 26.7795C-4.86048 27.0472 -5.04931 27.3735 -5.18498 27.7585C-5.32064 28.1435 -5.38848 28.578 -5.38848 29.062C-5.38848 29.5533 -5.31881 29.9915 -5.17948 30.3765C-5.03648 30.7615 -4.84398 31.0878 -4.60198 31.3555C-4.35631 31.6195 -4.06848 31.8212 -3.73848 31.9605C-3.40481 32.0998 -3.04548 32.1695 -2.66048 32.1695C-2.42581 32.1695 -2.21498 32.1567 -2.02798 32.131C-1.83731 32.1017 -1.66314 32.0577 -1.50548 31.999C-1.34414 31.9403 -1.19564 31.867 -1.05998 31.779C-0.920645 31.6873 -0.783145 31.5792 -0.647478 31.4545C-0.585144 31.3995 -0.522811 31.372 -0.460478 31.372Z" fill="#152C40"/>
<path d="M4.14268 30.492C3.69168 30.5067 3.30668 30.5433 2.98768 30.602C2.67235 30.657 2.41384 30.7303 2.21218 30.822C2.01418 30.9137 1.86935 31.0218 1.77768 31.1465C1.68968 31.2712 1.64568 31.4105 1.64568 31.5645C1.64568 31.7112 1.66951 31.8377 1.71718 31.944C1.76485 32.0503 1.82901 32.1383 1.90968 32.208C1.99401 32.274 2.09118 32.3235 2.20118 32.3565C2.31485 32.3858 2.43585 32.4005 2.56418 32.4005C2.73651 32.4005 2.89418 32.384 3.03718 32.351C3.18018 32.3143 3.31401 32.263 3.43868 32.197C3.56701 32.131 3.68801 32.0522 3.80168 31.9605C3.91901 31.8688 4.03268 31.7643 4.14268 31.647V30.492ZM0.980178 28.215C1.28818 27.918 1.62001 27.6962 1.97568 27.5495C2.33135 27.4028 2.72551 27.3295 3.15818 27.3295C3.46984 27.3295 3.74668 27.3808 3.98868 27.4835C4.23068 27.5862 4.43418 27.7292 4.59918 27.9125C4.76418 28.0958 4.88884 28.3177 4.97318 28.578C5.05751 28.8383 5.09968 29.1243 5.09968 29.436V33H4.66518C4.56985 33 4.49651 32.9853 4.44518 32.956C4.39385 32.923 4.35351 32.8607 4.32418 32.769L4.21418 32.241C4.06751 32.3767 3.92451 32.4977 3.78518 32.604C3.64584 32.7067 3.49918 32.7947 3.34518 32.868C3.19118 32.9377 3.02618 32.9908 2.85018 33.0275C2.67785 33.0678 2.48535 33.088 2.27268 33.088C2.05634 33.088 1.85284 33.0587 1.66218 33C1.47151 32.9377 1.30468 32.846 1.16168 32.725C1.02235 32.604 0.910511 32.4518 0.826178 32.2685C0.745511 32.0815 0.705178 31.8615 0.705178 31.6085C0.705178 31.3885 0.765678 31.1777 0.886678 30.976C1.00768 30.7707 1.20384 30.5892 1.47518 30.4315C1.74651 30.2738 2.10034 30.1455 2.53668 30.0465C2.97301 29.9438 3.50834 29.8852 4.14268 29.8705V29.436C4.14268 29.0033 4.04918 28.677 3.86218 28.457C3.67518 28.2333 3.40201 28.1215 3.04268 28.1215C2.80068 28.1215 2.59718 28.1527 2.43218 28.215C2.27085 28.2737 2.12968 28.3415 2.00868 28.4185C1.89135 28.4918 1.78868 28.5597 1.70068 28.622C1.61634 28.6807 1.53201 28.71 1.44768 28.71C1.38168 28.71 1.32484 28.6935 1.27718 28.6605C1.22951 28.6238 1.18918 28.5798 1.15618 28.5285L0.980178 28.215Z" fill="#152C40"/>
<path d="M7.52045 28.545C7.69645 28.1637 7.91278 27.8667 8.16945 27.654C8.42612 27.4377 8.73962 27.3295 9.10995 27.3295C9.22729 27.3295 9.33912 27.3423 9.44545 27.368C9.55545 27.3937 9.65262 27.434 9.73695 27.489L9.66545 28.2205C9.64345 28.3122 9.58845 28.358 9.50045 28.358C9.44912 28.358 9.37395 28.347 9.27495 28.325C9.17595 28.303 9.06412 28.292 8.93945 28.292C8.76345 28.292 8.60579 28.3177 8.46645 28.369C8.33078 28.4203 8.20795 28.4973 8.09795 28.6C7.99162 28.699 7.89445 28.8237 7.80645 28.974C7.72212 29.1207 7.64512 29.2893 7.57545 29.48V33H6.59095V27.4285H7.15195C7.25829 27.4285 7.33162 27.4487 7.37195 27.489C7.41229 27.5293 7.43978 27.599 7.45445 27.698L7.52045 28.545Z" fill="#152C40"/>
<path d="M12.3083 33.088C11.8683 33.088 11.5291 32.9652 11.2908 32.7195C11.0561 32.4738 10.9388 32.12 10.9388 31.658V28.248H10.2678C10.2091 28.248 10.1596 28.2315 10.1193 28.1985C10.079 28.1618 10.0588 28.1068 10.0588 28.0335V27.643L10.9718 27.5275L11.1973 25.806C11.2083 25.751 11.2321 25.707 11.2688 25.674C11.3091 25.6373 11.3605 25.619 11.4228 25.619H11.9178V27.5385H13.5293V28.248H11.9178V31.592C11.9178 31.8267 11.9746 32.0008 12.0883 32.1145C12.202 32.2282 12.3486 32.285 12.5283 32.285C12.631 32.285 12.719 32.2722 12.7923 32.2465C12.8693 32.2172 12.9353 32.186 12.9903 32.153C13.0453 32.12 13.0911 32.0907 13.1278 32.065C13.1681 32.0357 13.203 32.021 13.2323 32.021C13.2836 32.021 13.3295 32.0522 13.3698 32.1145L13.6558 32.582C13.4871 32.7397 13.2836 32.8643 13.0453 32.956C12.807 33.044 12.5613 33.088 12.3083 33.088Z" fill="#152C40"/>
<path d="M16.8564 27.3405C17.2634 27.3405 17.6301 27.4083 17.9564 27.544C18.2828 27.6797 18.5614 27.8722 18.7924 28.1215C19.0234 28.3708 19.1994 28.6733 19.3204 29.029C19.4451 29.381 19.5074 29.7752 19.5074 30.2115C19.5074 30.6515 19.4451 31.0475 19.3204 31.3995C19.1994 31.7515 19.0234 32.0522 18.7924 32.3015C18.5614 32.5508 18.2828 32.7433 17.9564 32.879C17.6301 33.011 17.2634 33.077 16.8564 33.077C16.4458 33.077 16.0754 33.011 15.7454 32.879C15.4191 32.7433 15.1404 32.5508 14.9094 32.3015C14.6784 32.0522 14.5006 31.7515 14.3759 31.3995C14.2549 31.0475 14.1944 30.6515 14.1944 30.2115C14.1944 29.7752 14.2549 29.381 14.3759 29.029C14.5006 28.6733 14.6784 28.3708 14.9094 28.1215C15.1404 27.8722 15.4191 27.6797 15.7454 27.544C16.0754 27.4083 16.4458 27.3405 16.8564 27.3405ZM16.8564 32.3125C17.4064 32.3125 17.8171 32.1292 18.0884 31.7625C18.3598 31.3922 18.4954 30.877 18.4954 30.217C18.4954 29.5533 18.3598 29.0363 18.0884 28.666C17.8171 28.2957 17.4064 28.1105 16.8564 28.1105C16.5778 28.1105 16.3339 28.1582 16.1249 28.2535C15.9196 28.3488 15.7473 28.4863 15.6079 28.666C15.4723 28.8457 15.3696 29.0675 15.2999 29.3315C15.2339 29.5918 15.2009 29.887 15.2009 30.217C15.2009 30.877 15.3366 31.3922 15.6079 31.7625C15.8829 32.1292 16.2991 32.3125 16.8564 32.3125ZM17.4669 25.7125C17.5989 25.7125 17.6998 25.674 17.7694 25.597C17.8428 25.52 17.8813 25.4008 17.8849 25.2395H18.4789C18.4789 25.4118 18.4551 25.5713 18.4074 25.718C18.3634 25.861 18.2974 25.9838 18.2094 26.0865C18.1251 26.1892 18.0224 26.2698 17.9014 26.3285C17.7841 26.3835 17.6521 26.411 17.5054 26.411C17.3771 26.411 17.2561 26.3853 17.1424 26.334C17.0324 26.279 16.9279 26.2203 16.8289 26.158C16.7299 26.0957 16.6364 26.0388 16.5484 25.9875C16.4604 25.9325 16.3743 25.905 16.2899 25.905C16.0259 25.905 15.8903 26.0663 15.8829 26.389H15.2724C15.2724 26.213 15.2963 26.0535 15.3439 25.9105C15.3916 25.7638 15.4594 25.6392 15.5474 25.5365C15.6354 25.4302 15.7399 25.3495 15.8609 25.2945C15.9819 25.2358 16.1139 25.2065 16.2569 25.2065C16.3853 25.2065 16.5044 25.234 16.6144 25.289C16.7281 25.3403 16.8344 25.3972 16.9334 25.4595C17.0324 25.5218 17.1241 25.5805 17.2084 25.6355C17.2964 25.6868 17.3826 25.7125 17.4669 25.7125Z" fill="#152C40"/>
<path d="M24.4782 29.6065C24.4782 29.3792 24.4452 29.172 24.3792 28.985C24.3168 28.7943 24.2233 28.6312 24.0987 28.4955C23.9777 28.3562 23.8292 28.2498 23.6532 28.1765C23.4772 28.0995 23.2773 28.061 23.0537 28.061C22.5843 28.061 22.2122 28.1985 21.9372 28.4735C21.6658 28.7448 21.4972 29.1225 21.4312 29.6065H24.4782ZM25.2702 32.219C25.1492 32.3657 25.0043 32.494 24.8357 32.604C24.667 32.7103 24.4855 32.7983 24.2912 32.868C24.1005 32.9377 23.9025 32.989 23.6972 33.022C23.4918 33.0587 23.2883 33.077 23.0867 33.077C22.7017 33.077 22.346 33.0128 22.0197 32.8845C21.697 32.7525 21.4165 32.5618 21.1782 32.3125C20.9435 32.0595 20.7602 31.7478 20.6282 31.3775C20.4962 31.0072 20.4302 30.5818 20.4302 30.1015C20.4302 29.7128 20.4888 29.3498 20.6062 29.0125C20.7272 28.6752 20.8995 28.3837 21.1232 28.138C21.3468 27.8887 21.62 27.6943 21.9427 27.555C22.2653 27.412 22.6283 27.3405 23.0317 27.3405C23.3653 27.3405 23.6733 27.3973 23.9557 27.511C24.2417 27.621 24.4873 27.7823 24.6927 27.995C24.9017 28.204 25.0648 28.4643 25.1822 28.776C25.2995 29.084 25.3582 29.436 25.3582 29.832C25.3582 29.986 25.3417 30.0887 25.3087 30.14C25.2757 30.1913 25.2133 30.217 25.1217 30.217H21.3982C21.4092 30.569 21.4568 30.8752 21.5412 31.1355C21.6292 31.3958 21.7502 31.614 21.9042 31.79C22.0582 31.9623 22.2415 32.0925 22.4542 32.1805C22.6668 32.2648 22.9052 32.307 23.1692 32.307C23.4148 32.307 23.6257 32.2795 23.8017 32.2245C23.9813 32.1658 24.1353 32.1035 24.2637 32.0375C24.392 31.9715 24.4983 31.911 24.5827 31.856C24.6707 31.7973 24.7458 31.768 24.8082 31.768C24.8888 31.768 24.9512 31.7992 24.9952 31.8615L25.2702 32.219Z" fill="#152C40"/>
<path d="M29.8057 28.347C29.7617 28.4277 29.6938 28.468 29.6022 28.468C29.5472 28.468 29.4848 28.4478 29.4152 28.4075C29.3455 28.3672 29.2593 28.3232 29.1567 28.2755C29.0577 28.2242 28.9385 28.1783 28.7992 28.138C28.6598 28.094 28.4948 28.072 28.3042 28.072C28.1392 28.072 27.9907 28.094 27.8587 28.138C27.7267 28.1783 27.613 28.2352 27.5177 28.3085C27.426 28.3818 27.3545 28.468 27.3032 28.567C27.2555 28.6623 27.2317 28.7668 27.2317 28.8805C27.2317 29.0235 27.272 29.1427 27.3527 29.238C27.437 29.3333 27.547 29.4158 27.6827 29.4855C27.8183 29.5552 27.9723 29.6175 28.1447 29.6725C28.317 29.7238 28.493 29.7807 28.6727 29.843C28.856 29.9017 29.0338 29.9677 29.2062 30.041C29.3785 30.1143 29.5325 30.206 29.6682 30.316C29.8038 30.426 29.912 30.5617 29.9927 30.723C30.077 30.8807 30.1192 31.0713 30.1192 31.295C30.1192 31.5517 30.0733 31.79 29.9817 32.01C29.89 32.2263 29.7543 32.4152 29.5747 32.5765C29.395 32.7342 29.175 32.8588 28.9147 32.9505C28.6543 33.0422 28.3537 33.088 28.0127 33.088C27.624 33.088 27.272 33.0257 26.9567 32.901C26.6413 32.7727 26.3737 32.6095 26.1537 32.4115L26.3847 32.0375C26.414 31.9898 26.4488 31.9532 26.4892 31.9275C26.5295 31.9018 26.5808 31.889 26.6432 31.889C26.7092 31.889 26.7788 31.9147 26.8522 31.966C26.9255 32.0173 27.0135 32.0742 27.1162 32.1365C27.2225 32.1988 27.3508 32.2557 27.5012 32.307C27.6515 32.3583 27.8385 32.384 28.0622 32.384C28.2528 32.384 28.4197 32.3602 28.5627 32.3125C28.7057 32.2612 28.8248 32.1933 28.9202 32.109C29.0155 32.0247 29.0852 31.9275 29.1292 31.8175C29.1768 31.7075 29.2007 31.5902 29.2007 31.4655C29.2007 31.3115 29.1585 31.185 29.0742 31.086C28.9935 30.9833 28.8853 30.8972 28.7497 30.8275C28.614 30.7542 28.4582 30.6918 28.2822 30.6405C28.1098 30.5855 27.932 30.5287 27.7487 30.47C27.569 30.4113 27.3912 30.3453 27.2152 30.272C27.0428 30.195 26.8888 30.0997 26.7532 29.986C26.6175 29.8723 26.5075 29.733 26.4232 29.568C26.3425 29.3993 26.3022 29.1958 26.3022 28.9575C26.3022 28.7448 26.3462 28.5413 26.4342 28.347C26.5222 28.149 26.6505 27.9767 26.8192 27.83C26.9878 27.6797 27.195 27.5605 27.4407 27.4725C27.6863 27.3845 27.9668 27.3405 28.2822 27.3405C28.6488 27.3405 28.977 27.3992 29.2667 27.5165C29.56 27.6302 29.813 27.7878 30.0257 27.9895L29.8057 28.347Z" fill="#152C40"/>
<path d="M21.47 2.35L20.13 1.79V10.82L22.56 4.96C22.97 3.94 22.5 2.77 21.47 2.35ZM1.97002 6.05L6.93002 18C7.24002 18.77 7.97002 19.24 8.74002 19.26C9.00002 19.26 9.27002 19.21 9.53002 19.1L16.9 16.05C17.65 15.74 18.11 15 18.13 14.26C18.14 14 18.09 13.71 18 13.45L13 1.5C12.71 0.73 11.97 0.26 11.19 0.25C10.93 0.25 10.67 0.31 10.42 0.4L3.06002 3.45C2.04002 3.87 1.55002 5.04 1.97002 6.05ZM18.12 2.25C18.12 1.71957 17.9093 1.21086 17.5342 0.835786C17.1592 0.460714 16.6505 0.25 16.12 0.25H14.67L18.12 8.59" fill="#152C40"/>
</svg>
