<svg width="24" height="22" viewBox="0 0 24 22" fill="none" xmlns="http://www.w3.org/2000/svg">
<path d="M6.207 25.1185V33H5.272V27.2085C5.272 27.1315 5.27383 27.049 5.2775 26.961C5.28483 26.873 5.29217 26.7832 5.2995 26.6915L2.5935 31.6195C2.50917 31.7845 2.38083 31.867 2.2085 31.867H2.0545C1.88217 31.867 1.75383 31.7845 1.6695 31.6195L-1.0915 26.6695C-1.0695 26.8638 -1.0585 27.0435 -1.0585 27.2085V33H-1.9935V25.1185H-1.207C-1.11167 25.1185 -1.03833 25.1277 -0.987 25.146C-0.935666 25.1643 -0.886166 25.2157 -0.8385 25.3L1.884 30.151C1.928 30.239 1.97017 30.3307 2.0105 30.426C2.0545 30.5213 2.09483 30.6185 2.1315 30.7175C2.16817 30.6185 2.20667 30.5213 2.247 30.426C2.28733 30.327 2.33133 30.2335 2.379 30.1455L5.052 25.3C5.096 25.2157 5.14367 25.1643 5.195 25.146C5.25 25.1277 5.32517 25.1185 5.4205 25.1185H6.207Z" fill="#152C40"/>
<path d="M10.8497 30.492C10.3987 30.5067 10.0137 30.5433 9.69469 30.602C9.37935 30.657 9.12085 30.7303 8.91919 30.822C8.72119 30.9137 8.57635 31.0218 8.48469 31.1465C8.39669 31.2712 8.35269 31.4105 8.35269 31.5645C8.35269 31.7112 8.37652 31.8377 8.42419 31.944C8.47185 32.0503 8.53602 32.1383 8.61669 32.208C8.70102 32.274 8.79819 32.3235 8.90819 32.3565C9.02185 32.3858 9.14285 32.4005 9.27119 32.4005C9.44352 32.4005 9.60119 32.384 9.74419 32.351C9.88719 32.3143 10.021 32.263 10.1457 32.197C10.274 32.131 10.395 32.0522 10.5087 31.9605C10.626 31.8688 10.7397 31.7643 10.8497 31.647V30.492ZM7.68719 28.215C7.99519 27.918 8.32702 27.6962 8.68269 27.5495C9.03835 27.4028 9.43252 27.3295 9.86519 27.3295C10.1769 27.3295 10.4537 27.3808 10.6957 27.4835C10.9377 27.5862 11.1412 27.7292 11.3062 27.9125C11.4712 28.0958 11.5959 28.3177 11.6802 28.578C11.7645 28.8383 11.8067 29.1243 11.8067 29.436V33H11.3722C11.2769 33 11.2035 32.9853 11.1522 32.956C11.1009 32.923 11.0605 32.8607 11.0312 32.769L10.9212 32.241C10.7745 32.3767 10.6315 32.4977 10.4922 32.604C10.3529 32.7067 10.2062 32.7947 10.0522 32.868C9.89819 32.9377 9.73319 32.9908 9.55719 33.0275C9.38485 33.0678 9.19235 33.088 8.97969 33.088C8.76335 33.088 8.55985 33.0587 8.36919 33C8.17852 32.9377 8.01169 32.846 7.86869 32.725C7.72935 32.604 7.61752 32.4518 7.53319 32.2685C7.45252 32.0815 7.41219 31.8615 7.41219 31.6085C7.41219 31.3885 7.47269 31.1777 7.59369 30.976C7.71469 30.7707 7.91085 30.5892 8.18219 30.4315C8.45352 30.2738 8.80735 30.1455 9.24369 30.0465C9.68002 29.9438 10.2154 29.8852 10.8497 29.8705V29.436C10.8497 29.0033 10.7562 28.677 10.5692 28.457C10.3822 28.2333 10.109 28.1215 9.74969 28.1215C9.50769 28.1215 9.30419 28.1527 9.13919 28.215C8.97785 28.2737 8.83669 28.3415 8.71569 28.4185C8.59835 28.4918 8.49569 28.5597 8.40769 28.622C8.32335 28.6807 8.23902 28.71 8.15469 28.71C8.08869 28.71 8.03185 28.6935 7.98419 28.6605C7.93652 28.6238 7.89619 28.5798 7.86319 28.5285L7.68719 28.215Z" fill="#152C40"/>
<path d="M14.2825 31.658C14.4621 31.9 14.6583 32.0705 14.871 32.1695C15.0836 32.2685 15.322 32.318 15.586 32.318C16.1066 32.318 16.5063 32.1328 16.785 31.7625C17.0636 31.3922 17.203 30.8642 17.203 30.1785C17.203 29.8155 17.17 29.5038 17.104 29.2435C17.0416 28.9832 16.95 28.7705 16.829 28.6055C16.708 28.4368 16.5595 28.314 16.3835 28.237C16.2075 28.16 16.0076 28.1215 15.784 28.1215C15.465 28.1215 15.1845 28.1948 14.9425 28.3415C14.7041 28.4882 14.4841 28.6953 14.2825 28.963V31.658ZM14.233 28.292C14.4676 28.0023 14.739 27.7695 15.047 27.5935C15.355 27.4175 15.707 27.3295 16.103 27.3295C16.4256 27.3295 16.7171 27.3918 16.9775 27.5165C17.2378 27.6375 17.4596 27.819 17.643 28.061C17.8263 28.2993 17.9675 28.5963 18.0665 28.952C18.1655 29.3077 18.215 29.7165 18.215 30.1785C18.215 30.5892 18.16 30.9723 18.05 31.328C17.94 31.68 17.7805 31.9862 17.5715 32.2465C17.3661 32.5032 17.1131 32.7067 16.8125 32.857C16.5155 33.0037 16.18 33.077 15.806 33.077C15.465 33.077 15.1716 33.0202 14.926 32.9065C14.684 32.7892 14.4695 32.6278 14.2825 32.4225V34.8865H13.298V27.4285H13.8865C14.0258 27.4285 14.112 27.4963 14.145 27.632L14.233 28.292Z" fill="#152C40"/>
<path d="M22.4835 30.492C22.0325 30.5067 21.6475 30.5433 21.3285 30.602C21.0131 30.657 20.7546 30.7303 20.553 30.822C20.355 30.9137 20.2101 31.0218 20.1185 31.1465C20.0305 31.2712 19.9865 31.4105 19.9865 31.5645C19.9865 31.7112 20.0103 31.8377 20.058 31.944C20.1056 32.0503 20.1698 32.1383 20.2505 32.208C20.3348 32.274 20.432 32.3235 20.542 32.3565C20.6556 32.3858 20.7766 32.4005 20.905 32.4005C21.0773 32.4005 21.235 32.384 21.378 32.351C21.521 32.3143 21.6548 32.263 21.7795 32.197C21.9078 32.131 22.0288 32.0522 22.1425 31.9605C22.2598 31.8688 22.3735 31.7643 22.4835 31.647V30.492ZM19.321 28.215C19.629 27.918 19.9608 27.6962 20.3165 27.5495C20.6721 27.4028 21.0663 27.3295 21.499 27.3295C21.8106 27.3295 22.0875 27.3808 22.3295 27.4835C22.5715 27.5862 22.775 27.7292 22.94 27.9125C23.105 28.0958 23.2296 28.3177 23.314 28.578C23.3983 28.8383 23.4405 29.1243 23.4405 29.436V33H23.006C22.9106 33 22.8373 32.9853 22.786 32.956C22.7346 32.923 22.6943 32.8607 22.665 32.769L22.555 32.241C22.4083 32.3767 22.2653 32.4977 22.126 32.604C21.9866 32.7067 21.84 32.7947 21.686 32.868C21.532 32.9377 21.367 32.9908 21.191 33.0275C21.0186 33.0678 20.8261 33.088 20.6135 33.088C20.3971 33.088 20.1936 33.0587 20.003 33C19.8123 32.9377 19.6455 32.846 19.5025 32.725C19.3631 32.604 19.2513 32.4518 19.167 32.2685C19.0863 32.0815 19.046 31.8615 19.046 31.6085C19.046 31.3885 19.1065 31.1777 19.2275 30.976C19.3485 30.7707 19.5446 30.5892 19.816 30.4315C20.0873 30.2738 20.4411 30.1455 20.8775 30.0465C21.3138 29.9438 21.8491 29.8852 22.4835 29.8705V29.436C22.4835 29.0033 22.39 28.677 22.203 28.457C22.016 28.2333 21.7428 28.1215 21.3835 28.1215C21.1415 28.1215 20.938 28.1527 20.773 28.215C20.6116 28.2737 20.4705 28.3415 20.3495 28.4185C20.2321 28.4918 20.1295 28.5597 20.0415 28.622C19.9571 28.6807 19.8728 28.71 19.7885 28.71C19.7225 28.71 19.6656 28.6935 19.618 28.6605C19.5703 28.6238 19.53 28.5798 19.497 28.5285L19.321 28.215Z" fill="#152C40"/>
<path d="M14 9.5C14.3283 9.5 14.6534 9.43534 14.9567 9.3097C15.26 9.18406 15.5356 8.99991 15.7678 8.76777C15.9999 8.53562 16.1841 8.26002 16.3097 7.95671C16.4353 7.65339 16.5 7.3283 16.5 7C16.5 6.33696 16.2366 5.70107 15.7678 5.23223C15.2989 4.76339 14.663 4.5 14 4.5C13.337 4.5 12.7011 4.76339 12.2322 5.23223C11.7634 5.70107 11.5 6.33696 11.5 7C11.5 7.3283 11.5647 7.65339 11.6903 7.95671C11.8159 8.26002 12.0001 8.53562 12.2322 8.76777C12.7011 9.23661 13.337 9.5 14 9.5ZM14 0C17.86 0 21 3.13 21 7C21 12.25 14 20 14 20C14 20 7 12.25 7 7C7 5.14348 7.7375 3.36301 9.05025 2.05025C10.363 0.737498 12.1435 0 14 0ZM5 7C5 11.5 10.08 17.66 11 18.81L10 20C10 20 3 12.25 3 7C3 3.83 5.11 1.15 8 0.29C6.16 1.94 5 4.33 5 7Z" fill="#152C40"/>
</svg>
