<svg width="19" height="19" viewBox="0 0 19 19" fill="none" xmlns="http://www.w3.org/2000/svg">
<path d="M7.17191 0.828003C8.89581 0.828003 10.5491 1.51282 11.7681 2.73181C12.9871 3.9508 13.6719 5.6041 13.6719 7.328C13.6719 8.938 13.0819 10.418 12.1119 11.558L12.3819 11.828H13.1719L18.1719 16.828L16.6719 18.328L11.6719 13.328V12.538L11.4019 12.268C10.2619 13.238 8.78191 13.828 7.17191 13.828C5.448 13.828 3.7947 13.1432 2.57571 11.9242C1.35672 10.7052 0.671906 9.05191 0.671906 7.328C0.671906 5.6041 1.35672 3.9508 2.57571 2.73181C3.7947 1.51282 5.448 0.828003 7.17191 0.828003M7.17191 2.828C4.67191 2.828 2.67191 4.828 2.67191 7.328C2.67191 9.828 4.67191 11.828 7.17191 11.828C9.67191 11.828 11.6719 9.828 11.6719 7.328C11.6719 4.828 9.67191 2.828 7.17191 2.828Z" fill="white"/>
</svg>
