<svg width="23" height="20" viewBox="0 0 23 20" fill="none" xmlns="http://www.w3.org/2000/svg">
<path d="M2.33297 29.205C2.6373 29.205 2.90497 29.1647 3.13597 29.084C3.37064 29.0033 3.5668 28.8915 3.72447 28.7485C3.8858 28.6018 4.0068 28.4277 4.08747 28.226C4.16814 28.0243 4.20847 27.8025 4.20847 27.5605C4.20847 27.0582 4.05264 26.6658 3.74097 26.3835C3.43297 26.1012 2.96364 25.96 2.33297 25.96H1.06797V29.205H2.33297ZM2.33297 25.1185C2.83164 25.1185 3.2643 25.1772 3.63097 25.2945C4.0013 25.4082 4.30747 25.5713 4.54947 25.784C4.79147 25.9967 4.97114 26.2533 5.08847 26.554C5.20947 26.8547 5.26997 27.1902 5.26997 27.5605C5.26997 27.9272 5.2058 28.2627 5.07747 28.567C4.94914 28.8713 4.7603 29.1335 4.51097 29.3535C4.2653 29.5735 3.95914 29.7458 3.59247 29.8705C3.22947 29.9915 2.80964 30.052 2.33297 30.052H1.06797V33H0.00646973V25.1185H2.33297Z" fill="#152C40"/>
<path d="M9.82088 29.6065C9.82088 29.3792 9.78788 29.172 9.72188 28.985C9.65954 28.7943 9.56604 28.6312 9.44138 28.4955C9.32038 28.3562 9.17188 28.2498 8.99588 28.1765C8.81988 28.0995 8.62004 28.061 8.39638 28.061C7.92704 28.061 7.55488 28.1985 7.27988 28.4735C7.00854 28.7448 6.83988 29.1225 6.77388 29.6065H9.82088ZM10.6129 32.219C10.4919 32.3657 10.347 32.494 10.1784 32.604C10.0097 32.7103 9.82821 32.7983 9.63388 32.868C9.44321 32.9377 9.24521 32.989 9.03988 33.022C8.83454 33.0587 8.63104 33.077 8.42938 33.077C8.04438 33.077 7.68871 33.0128 7.36238 32.8845C7.03971 32.7525 6.75921 32.5618 6.52088 32.3125C6.28621 32.0595 6.10288 31.7478 5.97088 31.3775C5.83888 31.0072 5.77288 30.5818 5.77288 30.1015C5.77288 29.7128 5.83154 29.3498 5.94888 29.0125C6.06988 28.6752 6.24221 28.3837 6.46588 28.138C6.68954 27.8887 6.96271 27.6943 7.28538 27.555C7.60804 27.412 7.97104 27.3405 8.37438 27.3405C8.70804 27.3405 9.01604 27.3973 9.29838 27.511C9.58438 27.621 9.83004 27.7823 10.0354 27.995C10.2444 28.204 10.4075 28.4643 10.5249 28.776C10.6422 29.084 10.7009 29.436 10.7009 29.832C10.7009 29.986 10.6844 30.0887 10.6514 30.14C10.6184 30.1913 10.556 30.217 10.4644 30.217H6.74088C6.75188 30.569 6.79954 30.8752 6.88388 31.1355C6.97188 31.3958 7.09288 31.614 7.24688 31.79C7.40088 31.9623 7.58421 32.0925 7.79688 32.1805C8.00954 32.2648 8.24788 32.307 8.51188 32.307C8.75754 32.307 8.96838 32.2795 9.14438 32.2245C9.32404 32.1658 9.47804 32.1035 9.60638 32.0375C9.73471 31.9715 9.84104 31.911 9.92538 31.856C10.0134 31.7973 10.0885 31.768 10.1509 31.768C10.2315 31.768 10.2939 31.7992 10.3379 31.8615L10.6129 32.219Z" fill="#152C40"/>
<path d="M12.8329 28.545C13.0089 28.1637 13.2252 27.8667 13.4819 27.654C13.7386 27.4377 14.0521 27.3295 14.4224 27.3295C14.5397 27.3295 14.6516 27.3423 14.7579 27.368C14.8679 27.3937 14.9651 27.434 15.0494 27.489L14.9779 28.2205C14.9559 28.3122 14.9009 28.358 14.8129 28.358C14.7616 28.358 14.6864 28.347 14.5874 28.325C14.4884 28.303 14.3766 28.292 14.2519 28.292C14.0759 28.292 13.9182 28.3177 13.7789 28.369C13.6432 28.4203 13.5204 28.4973 13.4104 28.6C13.3041 28.699 13.2069 28.8237 13.1189 28.974C13.0346 29.1207 12.9576 29.2893 12.8879 29.48V33H11.9034V27.4285H12.4644C12.5707 27.4285 12.6441 27.4487 12.6844 27.489C12.7247 27.5293 12.7522 27.599 12.7669 27.698L12.8329 28.545Z" fill="#152C40"/>
<path d="M16.2842 33V28.2645L15.6682 28.193C15.5876 28.1747 15.5234 28.1472 15.4757 28.1105C15.4281 28.0702 15.4042 28.0133 15.4042 27.94V27.5385H16.2842V27.2305C16.2842 26.8895 16.3374 26.5778 16.4437 26.2955C16.5501 26.0095 16.7096 25.7638 16.9222 25.5585C17.1349 25.3532 17.3989 25.1937 17.7142 25.08C18.0332 24.9663 18.4017 24.9095 18.8197 24.9095C18.9591 24.9095 19.1021 24.9187 19.2487 24.937C19.3954 24.9553 19.5219 24.9828 19.6282 25.0195L19.5897 25.531C19.5861 25.5677 19.5714 25.5933 19.5457 25.608C19.5237 25.6227 19.4926 25.6318 19.4522 25.6355C19.4119 25.6392 19.3606 25.641 19.2982 25.641C19.2396 25.6373 19.1717 25.6355 19.0947 25.6355C18.4421 25.6355 17.9691 25.7712 17.6757 26.0425C17.3824 26.3102 17.2357 26.7153 17.2357 27.258V27.5385H20.6017V33H19.6172V28.248H17.2632V33H16.2842Z" fill="#152C40"/>
<path d="M23.2172 24.8985V33H22.2382V24.8985H23.2172Z" fill="#152C40"/>
<path d="M17 18H4.99997V16.6C4.99997 14.6 8.99997 13.5 11 13.5C13 13.5 17 14.6 17 16.6M11 6C11.7956 6 12.5587 6.31607 13.1213 6.87868C13.6839 7.44129 14 8.20435 14 9C14 9.79565 13.6839 10.5587 13.1213 11.1213C12.5587 11.6839 11.7956 12 11 12C10.2043 12 9.44126 11.6839 8.87865 11.1213C8.31604 10.5587 7.99997 9.79565 7.99997 9C7.99997 8.20435 8.31604 7.44129 8.87865 6.87868C9.44126 6.31607 10.2043 6 11 6ZM11 2C11.2652 2 11.5195 2.10536 11.7071 2.29289C11.8946 2.48043 12 2.73478 12 3C12 3.26522 11.8946 3.51957 11.7071 3.70711C11.5195 3.89464 11.2652 4 11 4C10.7348 4 10.4804 3.89464 10.2929 3.70711C10.1053 3.51957 9.99997 3.26522 9.99997 3C9.99997 2.73478 10.1053 2.48043 10.2929 2.29289C10.4804 2.10536 10.7348 2 11 2ZM18 2H13.82C13.4 0.84 12.3 0 11 0C9.69997 0 8.59997 0.84 8.17997 2H3.99997C3.46954 2 2.96083 2.21071 2.58576 2.58579C2.21068 2.96086 1.99997 3.46957 1.99997 4V18C1.99997 18.5304 2.21068 19.0391 2.58576 19.4142C2.96083 19.7893 3.46954 20 3.99997 20H18C18.5304 20 19.0391 19.7893 19.4142 19.4142C19.7893 19.0391 20 18.5304 20 18V4C20 3.46957 19.7893 2.96086 19.4142 2.58579C19.0391 2.21071 18.5304 2 18 2Z" fill="#152C40"/>
</svg>
